<?xml version="1.0" encoding="utf-8"?>
<svg xmlns="http://www.w3.org/2000/svg" viewBox="0 0 500 500" xmlns:bx="https://boxy-svg.com">
  <defs>
    <bx:export>
      <bx:file format="png" excluded="true"/>
    </bx:export>
  </defs>
  <ellipse style="fill: rgb(255, 255, 255);" cx="250" cy="250" rx="223.5" ry="223.5"/>
  <path d="M 473.512 249.998 C 473.512 297.961 458.405 342.394 432.69 378.8 C 406.976 415.206 370.654 443.586 328.22 459.44 C 298.276 445.15 261.478 427.489 230.693 410.834 C 199.908 394.179 175.137 378.53 169.247 368.266 C 160.195 352.496 162.37 324.336 177.951 303.998 C 193.532 283.659 222.519 271.14 267.091 286.651 C 294.427 296.163 328.703 281.667 362.701 256.789 C 396.698 231.91 430.414 196.649 456.629 164.629 C 462.069 177.781 466.289 191.565 469.151 205.839 C 472.011 220.115 473.512 234.882 473.512 249.998 Z M 250.001 473.511 C 188.28 473.511 132.402 448.492 91.954 408.046 C 51.506 367.598 26.489 311.719 26.489 249.998 C 26.489 199.076 43.519 152.13 72.193 114.547 C 100.868 76.965 141.187 48.743 187.768 35.267 C 171.048 96.001 153.323 174.5 139.164 239.823 C 125.005 305.146 114.413 357.293 111.958 365.326 C 108.785 375.711 136.923 392.185 173.77 410.95 C 210.617 429.714 256.171 450.77 287.831 470.323 C 281.683 471.37 275.448 472.167 269.14 472.702 C 262.831 473.237 256.448 473.512 250.001 473.512 L 250.001 473.511 Z M 250.001 26.488 C 292.246 26.488 331.754 38.208 365.45 58.574 C 399.146 78.94 427.03 107.95 446.03 142.533 C 420.802 169.498 390.496 200.356 360.608 221.24 C 330.72 242.123 301.246 253.035 277.677 240.104 C 252.363 226.214 241.366 190.843 237.844 149.94 C 234.322 109.039 238.276 62.608 242.86 26.6 C 244.046 26.562 245.235 26.534 246.425 26.516 C 247.615 26.497 248.808 26.488 250.002 26.488 L 250.001 26.488 Z" style="stroke-linecap: round; paint-order: stroke; stroke-width: 6px; fill: rgb(153, 51, 204);"/>
</svg>