<?xml version="1.0" encoding="utf-8"?>
<svg xmlns="http://www.w3.org/2000/svg" viewBox="0 0 500 500" xmlns:bx="https://boxy-svg.com">
  <defs>
    <bx:export>
      <bx:file format="png" excluded="true"/>
    </bx:export>
  </defs>
  <path d="M 399.039 225.961 C 399.039 287.602 360.209 340.174 305.674 360.55 C 267.188 342.183 211.087 315.153 203.516 301.961 C 191.883 281.694 209.106 229.579 266.392 249.514 C 301.523 261.739 354.498 212.253 388.19 171.102 C 395.181 188.005 399.039 206.532 399.039 225.961 Z M 255.409 369.591 C 176.084 369.591 111.779 305.286 111.779 225.961 C 111.779 160.514 155.552 105.292 215.418 87.972 C 193.929 166.029 169.856 289.748 166.702 300.071 C 162.624 313.419 239.029 342.414 279.719 367.542 C 271.817 368.889 263.695 369.591 255.409 369.591 Z M 255.409 82.331 C 309.703 82.331 356.961 112.457 381.379 156.904 C 348.954 191.558 303.483 236.221 273.195 219.603 C 240.659 201.752 244.927 128.682 250.82 82.403 C 252.344 82.355 253.874 82.331 255.409 82.331 Z" style="paint-order: stroke; stroke: currentcolor; stroke-linecap: round; stroke-width: 3px; fill: rgb(255, 255, 255);"/>
</svg>